<?xml version="1.0" encoding="UTF-8"?>
<svg xmlns="http://www.w3.org/2000/svg" xmlns:xlink="http://www.w3.org/1999/xlink" width="320px" height="512px" viewBox="0 0 320 512" version="1.1">
<g id="surface1">
<path style=" stroke:none;fill-rule:nonzero;fill:rgb(0%,0%,0%);fill-opacity:1;" d="M 152.3125 43.378906 C 117.378906 47.503906 85.199219 73.171875 62.800781 114.773438 C 40.355469 156.515625 29.464844 207.503906 31.15625 262.898438 C 32.488281 306.703125 42.398438 348.089844 59.820312 382.863281 C 71.820312 406.828125 86.976562 425.882812 104.890625 439.75 C 116.089844 448.355469 125.601562 453.332031 137.554688 456.890625 C 145.734375 459.234375 151.820312 460.089844 161.332031 460.089844 C 174.355469 460.089844 184.578125 457.957031 196.488281 452.691406 C 204.621094 449.136719 209.867188 445.867188 218.890625 438.753906 C 258.800781 407.464844 285.644531 346.808594 290.890625 276.265625 C 291.6875 265.246094 291.820312 240.996094 291.109375 230.398438 C 288.84375 195.699219 281.820312 164.621094 269.867188 135.820312 C 264.753906 123.589844 260.355469 115.058594 253.554688 104.179688 C 232.3125 70.117188 205.15625 49.28125 175.332031 44.160156 C 169.15625 43.09375 158.089844 42.738281 152.3125 43.378906 Z M 170.667969 56.179688 C 201.246094 60.375 228 80.496094 249.109375 115.269531 C 268.222656 146.773438 279.6875 185.386719 283.15625 230.042969 C 283.867188 239.148438 283.867188 264.179688 283.15625 273.421875 C 280.222656 310.898438 271.511719 344.675781 257.246094 373.546875 C 253.15625 381.796875 243.644531 397.226562 238.667969 403.625 C 224.933594 421.40625 209.15625 434.132812 192.355469 441.246094 C 154.578125 457.03125 114.667969 443.234375 84 403.625 C 79.023438 397.226562 69.511719 381.796875 65.421875 373.546875 C 51.15625 344.675781 42.445312 310.898438 39.511719 273.421875 C 38.800781 264.179688 38.800781 239.148438 39.511719 230.042969 C 41.023438 210.347656 44.933594 187.664062 49.734375 170.808594 C 61.957031 127.503906 85.15625 90.878906 112.089844 72.179688 C 130.976562 59.09375 151.378906 53.546875 170.667969 56.179688 Z M 170.667969 56.179688 "/>
<path style=" stroke:none;fill-rule:nonzero;fill:rgb(0%,0%,0%);fill-opacity:1;" d="M 159.554688 70.328125 C 156.445312 71.394531 153.734375 74.738281 152.3125 79.289062 C 151.957031 80.425781 141.910156 117.261719 130 161.066406 C 118.042969 204.871094 108.132812 241.136719 107.867188 241.5625 C 107.554688 242.277344 104.800781 242.488281 96.890625 242.488281 L 86.355469 242.488281 L 85.867188 240.78125 C 85.066406 238.007812 82.667969 234.027344 80.578125 232.035156 C 77.957031 229.617188 73.109375 228.976562 69.910156 230.683594 C 61.554688 235.09375 58.621094 252.730469 64.488281 263.394531 C 67.246094 268.375 70.089844 270.4375 74.222656 270.507812 C 78.355469 270.507812 81.109375 268.445312 84.132812 263.109375 L 86.132812 259.554688 L 106 259.699219 L 125.820312 259.910156 L 142.222656 310.398438 C 151.289062 338.132812 159.023438 361.316406 159.421875 361.742188 C 159.820312 362.238281 160.621094 362.667969 161.199219 362.667969 C 164.089844 362.667969 163.867188 363.378906 179.957031 310.117188 L 195.246094 259.554688 L 216.398438 259.554688 L 237.554688 259.625 L 238.800781 262.472656 C 244.179688 274.988281 256.890625 272.710938 260.933594 258.488281 C 262.179688 254.222656 262.042969 245.972656 260.710938 241.421875 C 256.976562 228.480469 246.089844 225.492188 239.910156 235.664062 C 239.023438 237.085938 238.089844 239.21875 237.777344 240.355469 L 237.246094 242.488281 L 226.445312 242.488281 C 216.753906 242.488281 215.644531 242.347656 215.023438 241.207031 C 214.667969 240.570312 214.265625 239.503906 214.132812 238.933594 C 214 238.363281 204.222656 201.742188 192.445312 157.652344 C 169.777344 72.890625 170.265625 74.382812 166.621094 71.679688 C 164.710938 70.257812 161.601562 69.617188 159.554688 70.328125 Z M 163.601562 99.554688 C 164.445312 99.980469 165.644531 101.050781 166.222656 102.042969 C 166.84375 103.109375 175.421875 133.902344 186 173.011719 L 204.710938 242.132812 L 183.511719 242.347656 C 171.820312 242.417969 152.621094 242.417969 140.753906 242.347656 L 119.246094 242.132812 L 137.820312 173.511719 C 148 135.75 156.800781 103.964844 157.378906 102.828125 C 158.3125 100.976562 160.445312 98.914062 161.554688 98.84375 C 161.820312 98.84375 162.710938 99.199219 163.601562 99.554688 Z M 188.890625 260.410156 C 188.84375 260.90625 183.199219 280.675781 176.265625 304.355469 C 162.84375 350.363281 162.800781 350.4375 160.3125 348.65625 C 159.378906 347.945312 156.398438 339.058594 145.464844 304.214844 C 137.957031 280.25 131.734375 260.410156 131.644531 260.054688 C 131.554688 259.769531 144.398438 259.554688 160.179688 259.554688 C 182.84375 259.554688 188.890625 259.769531 188.890625 260.410156 Z M 188.890625 260.410156 "/>
<path style=" stroke:none;fill-rule:nonzero;fill:rgb(0%,0%,0%);fill-opacity:1;" d="M 136.753906 79.359375 C 122.488281 84.195312 110.445312 92.300781 98.667969 104.890625 C 91.378906 112.640625 87.910156 117.191406 82.089844 126.363281 C 64.535156 153.957031 53.957031 187.875 50.132812 228.621094 C 49.246094 238.363281 49.378906 267.023438 50.355469 277.191406 C 55.464844 328.960938 73.464844 373.121094 100.710938 400.710938 C 112.535156 412.730469 129.867188 423.039062 142.578125 425.671875 L 144.890625 426.167969 L 144.890625 423.894531 C 144.890625 422.042969 144.710938 421.6875 143.777344 421.6875 C 141.378906 421.6875 131.421875 417.847656 125.109375 414.507812 C 91.6875 396.730469 65.109375 351.929688 55.777344 297.527344 C 53.199219 282.453125 52.355469 273.066406 52.132812 255.644531 C 51.957031 243.554688 52.089844 237.9375 52.621094 231.109375 C 55.820312 192.214844 66.179688 158.078125 82.890625 131.128906 C 92.265625 116.054688 100.265625 106.808594 112.222656 97.351562 C 121.378906 90.167969 129.644531 85.761719 141.246094 82.0625 C 141.910156 81.847656 142.222656 81.28125 142.222656 80 C 142.222656 79.074219 142.089844 78.152344 141.910156 78.007812 C 141.6875 77.867188 139.421875 78.4375 136.753906 79.359375 Z M 136.753906 79.359375 "/>
<path style=" stroke:none;fill-rule:nonzero;fill:rgb(0%,0%,0%);fill-opacity:1;" d="M 181.554688 78.078125 C 181.421875 78.292969 181.332031 79.21875 181.332031 80.070312 C 181.332031 81.207031 181.644531 81.847656 182.355469 82.0625 C 194.890625 86.328125 201.957031 90.027344 211.332031 97.351562 C 237.511719 117.902344 257.109375 153.742188 266.222656 197.761719 C 270.222656 217.171875 271.777344 234.59375 271.421875 256.355469 C 270.976562 282.808594 267.644531 304.570312 260.398438 327.820312 C 254.976562 345.171875 249.109375 358.472656 240.84375 371.910156 C 225.820312 396.375 207.023438 412.871094 186.3125 419.839844 C 183.332031 420.835938 180.398438 421.6875 179.777344 421.6875 C 178.84375 421.6875 178.667969 422.042969 178.667969 423.820312 C 178.667969 426.453125 178.800781 426.453125 185.15625 424.460938 C 228.890625 410.949219 263.199219 356.480469 272 286.578125 C 277.511719 242.914062 272.488281 197.332031 258.089844 159.859375 C 244 123.09375 220.710938 94.363281 195.6875 82.84375 C 190.535156 80.496094 181.910156 77.582031 181.554688 78.078125 Z M 181.554688 78.078125 "/>
<path style=" stroke:none;fill-rule:nonzero;fill:rgb(0%,0%,0%);fill-opacity:1;" d="M 101.023438 275.699219 C 134.488281 367.859375 157.644531 430.933594 158.488281 432.140625 C 160.042969 434.417969 163.511719 434.417969 165.066406 432.140625 C 165.957031 430.933594 218.667969 276.835938 218.667969 275.484375 C 218.667969 275.34375 216.621094 275.199219 214.132812 275.199219 L 209.554688 275.199219 L 187.820312 339.414062 C 175.023438 377.316406 165.644531 404.195312 164.933594 405.121094 C 163.601562 407.039062 161.023438 407.253906 159.199219 405.761719 C 158.3125 404.976562 152.179688 388.835938 134.265625 339.980469 L 110.578125 275.199219 L 105.6875 275.199219 C 103.023438 275.199219 100.933594 275.414062 101.023438 275.699219 Z M 101.023438 275.699219 "/>
</g>
</svg>
