<?xml version="1.0" encoding="UTF-8"?>
<svg xmlns="http://www.w3.org/2000/svg" xmlns:xlink="http://www.w3.org/1999/xlink" width="448px" height="512px" viewBox="0 0 448 512" version="1.1">
<g id="surface1">
<path style=" stroke:none;fill-rule:nonzero;fill:rgb(0%,0%,0%);fill-opacity:1;" d="M 205.722656 39.1875 C 195.726562 40.503906 187.03125 42.125 180.253906 44.058594 C 124.050781 59.59375 75.648438 104.964844 52.234375 164.019531 C 37.171875 202.046875 32.175781 244.019531 38.0625 283.285156 C 39.296875 291.710938 42.445312 307.089844 42.855469 306.628906 C 42.992188 306.472656 42.511719 303.382812 41.828125 299.824219 C 35.53125 269.835938 35.871094 239.769531 42.855469 208.078125 C 55.792969 149.101562 90.367188 99.554688 138.289062 71.1875 C 184.976562 43.59375 234.269531 40.039062 286.777344 60.445312 C 349.144531 84.714844 388.507812 134.183594 405.210938 209.3125 C 411.648438 238.375 412.8125 265.429688 408.703125 292.558594 C 407.949219 297.585938 407.402344 301.835938 407.539062 301.992188 C 407.949219 302.375 409.867188 291.632812 411.167969 282.511719 C 412.675781 271.457031 413.152344 248.117188 412.195312 236.136719 C 409.664062 205.835938 400.761719 172.289062 388.371094 146.164062 C 383.988281 136.964844 375.707031 122.742188 370.023438 114.78125 C 364.820312 107.363281 352.703125 93.679688 346.0625 87.574219 C 317.789062 61.757812 279.792969 44.523438 239.949219 39.421875 C 234.269531 38.726562 210.445312 38.492188 205.722656 39.1875 Z M 205.722656 39.1875 "/>
<path style=" stroke:none;fill-rule:nonzero;fill:rgb(0%,0%,0%);fill-opacity:1;" d="M 192.167969 166.261719 C 192.304688 185.894531 192.578125 196.871094 193.054688 197.410156 C 194.082031 198.570312 193.945312 146.242188 192.851562 140.445312 C 192.167969 136.734375 192.03125 140.984375 192.167969 166.261719 Z M 192.167969 166.261719 "/>
<path style=" stroke:none;fill-rule:nonzero;fill:rgb(0%,0%,0%);fill-opacity:1;" d="M 256.246094 143.226562 C 255.628906 147.246094 255.355469 157.679688 255.421875 174.144531 C 255.492188 196.40625 255.558594 198.800781 256.449219 196.484375 C 257.269531 194.394531 257.410156 188.832031 257.269531 165.566406 C 257.066406 139.75 256.996094 137.738281 256.246094 143.226562 Z M 256.246094 143.226562 "/>
<path style=" stroke:none;fill-rule:nonzero;fill:rgb(0%,0%,0%);fill-opacity:1;" d="M 290.75 141.835938 C 290.953125 143.921875 291.226562 157.449219 291.226562 171.75 C 291.296875 190.066406 291.5 198.027344 292.050781 198.648438 C 292.664062 199.34375 292.871094 194.164062 292.9375 178.394531 C 293.074219 158.300781 292.390625 145.238281 290.953125 140.289062 C 290.40625 138.433594 290.40625 138.820312 290.75 141.835938 Z M 290.75 141.835938 "/>
<path style=" stroke:none;fill-rule:nonzero;fill:rgb(0%,0%,0%);fill-opacity:1;" d="M 157.527344 144.078125 C 155.8125 155.207031 155.746094 200.503906 157.457031 197.023438 C 157.9375 196.175781 158.828125 139.128906 158.414062 139.128906 C 158.347656 139.128906 157.9375 141.371094 157.527344 144.078125 Z M 157.527344 144.078125 "/>
<path style=" stroke:none;fill-rule:nonzero;fill:rgb(0%,0%,0%);fill-opacity:1;" d="M 436.839844 179.789062 C 436.839844 180.636719 437.046875 180.871094 437.25 180.25 C 437.457031 179.710938 437.390625 179.015625 437.183594 178.78125 C 436.976562 178.472656 436.773438 178.9375 436.839844 179.789062 Z M 436.839844 179.789062 "/>
<path style=" stroke:none;fill-rule:nonzero;fill:rgb(0%,0%,0%);fill-opacity:1;" d="M 10.335938 182.878906 C 10.335938 183.730469 10.542969 183.960938 10.75 183.34375 C 10.953125 182.800781 10.886719 182.105469 10.679688 181.875 C 10.472656 181.566406 10.269531 182.027344 10.335938 182.878906 Z M 10.335938 182.878906 "/>
<path style=" stroke:none;fill-rule:nonzero;fill:rgb(0%,0%,0%);fill-opacity:1;" d="M 437.457031 182.105469 C 437.457031 182.339844 438.074219 185.199219 438.757812 188.445312 C 444.304688 213.101562 446.835938 248.734375 445.054688 275.167969 C 439.988281 347.671875 410.277344 406.105469 354.140625 453.875 C 334.152344 470.957031 316.898438 481.3125 294.71875 489.660156 C 275.003906 497.082031 257.066406 500.714844 236.527344 501.410156 C 225.574219 501.796875 222.90625 501.640625 219.550781 500.558594 C 214.484375 498.859375 211.335938 495.691406 209.351562 490.203125 L 207.773438 485.796875 L 207.636719 436.328125 C 207.636719 409.121094 207.5 386.320312 207.5 385.625 C 207.433594 384.925781 206.886719 383.535156 206.132812 382.53125 L 204.832031 380.753906 L 182.71875 380.597656 C 169.300781 380.523438 159.441406 380.136719 157.800781 379.59375 C 152.527344 377.972656 148.898438 374.726562 146.570312 369.3125 C 144.519531 364.523438 144.382812 363.59375 138.355469 302.609375 C 131.238281 231.035156 130.484375 222.375 130.964844 216.039062 L 131.304688 211.402344 L 130.414062 215.265625 C 128.429688 223.691406 129.113281 234.203125 135.960938 303.382812 C 139.519531 339.941406 142.945312 371.632812 143.492188 373.875 C 144.859375 379.59375 148.214844 384.078125 153.007812 386.859375 L 157.046875 389.179688 L 180.597656 389.566406 C 202.914062 389.953125 204.148438 390.027344 205.105469 391.421875 C 205.925781 392.734375 205.996094 399.613281 205.652344 437.023438 C 205.378906 466.472656 205.449219 483.554688 205.925781 488.269531 C 207.636719 504.8125 212.773438 510.066406 227.832031 510.761719 C 242.347656 511.457031 261.996094 508.753906 280.546875 503.574219 C 308.480469 495.691406 331.960938 482.78125 356.539062 461.679688 C 420.617188 406.648438 450.808594 335.457031 446.972656 248.269531 C 446.289062 232.578125 445.535156 224.464844 443.550781 210.628906 C 442.179688 201.199219 438.277344 181.640625 437.730469 181.640625 C 437.59375 181.640625 437.457031 181.875 437.457031 182.105469 Z M 437.457031 182.105469 "/>
<path style=" stroke:none;fill-rule:nonzero;fill:rgb(0%,0%,0%);fill-opacity:1;" d="M 8.96875 188.289062 C 8.96875 189.140625 9.171875 189.371094 9.378906 188.753906 C 9.585938 188.210938 9.515625 187.515625 9.308594 187.285156 C 9.105469 186.976562 8.898438 187.441406 8.96875 188.289062 Z M 8.96875 188.289062 "/>
<path style=" stroke:none;fill-rule:nonzero;fill:rgb(0%,0%,0%);fill-opacity:1;" d="M 8.285156 191.382812 C 8.285156 192.230469 8.488281 192.464844 8.695312 191.84375 C 8.898438 191.304688 8.832031 190.609375 8.625 190.375 C 8.421875 190.066406 8.214844 190.53125 8.285156 191.382812 Z M 8.285156 191.382812 "/>
<path style=" stroke:none;fill-rule:nonzero;fill:rgb(0%,0%,0%);fill-opacity:1;" d="M 7.597656 194.472656 C 7.597656 195.324219 7.804688 195.554688 8.011719 194.9375 C 8.214844 194.394531 8.148438 193.699219 7.941406 193.46875 C 7.734375 193.160156 7.53125 193.625 7.597656 194.472656 Z M 7.597656 194.472656 "/>
<path style=" stroke:none;fill-rule:nonzero;fill:rgb(0%,0%,0%);fill-opacity:1;" d="M 5.203125 206.6875 C 1.847656 226.550781 1.09375 235.441406 1.09375 257.777344 C 1.09375 280.039062 1.847656 289.082031 5.203125 308.019531 C 10.886719 339.941406 23.753906 373.953125 40.9375 402.320312 C 56 427.285156 77.015625 450.78125 99.265625 467.632812 C 112.34375 477.527344 131.921875 489.121094 146.503906 495.613281 C 161.769531 502.339844 171.628906 499.863281 177.105469 487.808594 C 179.089844 483.554688 179.363281 482.242188 179.296875 477.449219 C 179.226562 471.421875 178.199219 465.699219 178.0625 470.492188 C 177.859375 477.914062 172.039062 487.421875 166.492188 489.273438 C 161.703125 490.976562 154.445312 489.972656 147.1875 486.648438 C 138.082031 482.550781 124.9375 475.363281 116.109375 469.796875 C 87.492188 451.632812 63.394531 427.128906 44.019531 396.675781 C 27.519531 370.628906 13.144531 333.757812 7.257812 302.222656 C 3.695312 283.207031 3.082031 276.328125 3.082031 251.207031 C 3.082031 227.089844 3.492188 221.605469 6.230469 204.910156 C 6.984375 200.503906 7.460938 196.792969 7.324219 196.558594 C 7.121094 196.40625 6.230469 200.964844 5.203125 206.6875 Z M 5.203125 206.6875 "/>
<path style=" stroke:none;fill-rule:nonzero;fill:rgb(0%,0%,0%);fill-opacity:1;" d="M 318.40625 218.820312 C 318.335938 224.078125 314.710938 265.042969 311.765625 293.953125 C 309.507812 316.367188 307.726562 321.699219 301.015625 325.566406 C 298.691406 326.878906 297.320312 327.109375 292.9375 326.800781 C 284.109375 326.183594 279.453125 321.933594 277.878906 312.890625 C 277.261719 309.640625 277.46875 304.078125 278.5625 287.148438 C 279.382812 275.246094 280.480469 261.023438 281.027344 255.613281 C 282.53125 240.925781 282.464844 238.996094 280.273438 238.066406 C 279.179688 237.605469 257.613281 237.292969 223.589844 237.292969 C 177.996094 237.292969 168.480469 237.449219 167.382812 238.375 C 166.152344 239.382812 166.152344 239.921875 166.90625 248.191406 C 167.316406 253.0625 168.820312 269.679688 170.121094 285.21875 C 172.65625 314.976562 174.160156 329.273438 175.324219 336.078125 C 176.625 343.574219 176.625 339.789062 175.257812 328.039062 C 174.570312 321.699219 172.859375 303.457031 171.492188 287.535156 C 170.191406 271.613281 168.753906 256.15625 168.410156 253.21875 C 168.070312 250.203125 167.929688 247.574219 168.136719 247.1875 C 168.683594 246.261719 279.792969 246.414062 280.34375 247.34375 C 280.546875 247.730469 280.273438 252.753906 279.65625 258.320312 C 278.21875 272.230469 275.890625 306.550781 275.890625 314.28125 C 275.890625 322.472656 277.261719 326.800781 281.027344 330.742188 C 287.734375 337.699219 299.578125 338.007812 305.878906 331.363281 C 308 329.199219 310.601562 323.402344 311.421875 319.074219 C 312.246094 315.054688 314.710938 290.707031 317.996094 253.914062 C 320.390625 227.554688 320.597656 221.605469 319.023438 215.808594 C 318.609375 214.261719 318.472656 214.957031 318.40625 218.820312 Z M 318.40625 218.820312 "/>
<path style=" stroke:none;fill-rule:nonzero;fill:rgb(0%,0%,0%);fill-opacity:1;" d="M 406.71875 304.230469 C 406.71875 305.082031 406.925781 305.3125 407.128906 304.695312 C 407.335938 304.15625 407.265625 303.457031 407.0625 303.226562 C 406.855469 302.917969 406.648438 303.382812 406.71875 304.230469 Z M 406.71875 304.230469 "/>
<path style=" stroke:none;fill-rule:nonzero;fill:rgb(0%,0%,0%);fill-opacity:1;" d="M 406.035156 307.324219 C 406.035156 308.175781 406.238281 308.40625 406.445312 307.789062 C 406.648438 307.246094 406.582031 306.550781 406.375 306.320312 C 406.171875 306.007812 405.964844 306.472656 406.035156 307.324219 Z M 406.035156 307.324219 "/>
<path style=" stroke:none;fill-rule:nonzero;fill:rgb(0%,0%,0%);fill-opacity:1;" d="M 43.199219 308.871094 C 43.199219 309.71875 43.402344 309.953125 43.609375 309.332031 C 43.8125 308.792969 43.746094 308.097656 43.539062 307.863281 C 43.335938 307.554688 43.128906 308.019531 43.199219 308.871094 Z M 43.199219 308.871094 "/>
<path style=" stroke:none;fill-rule:nonzero;fill:rgb(0%,0%,0%);fill-opacity:1;" d="M 405.007812 311.1875 C 404.734375 312.269531 404.664062 313.351562 404.800781 313.585938 C 405.007812 313.738281 405.351562 312.964844 405.554688 311.808594 C 405.828125 310.726562 405.898438 309.640625 405.761719 309.410156 C 405.554688 309.257812 405.210938 310.027344 405.007812 311.1875 Z M 405.007812 311.1875 "/>
<path style=" stroke:none;fill-rule:nonzero;fill:rgb(0%,0%,0%);fill-opacity:1;" d="M 45.25 316.597656 C 45.25 317.449219 45.457031 317.679688 45.664062 317.0625 C 45.867188 316.523438 45.800781 315.824219 45.59375 315.59375 C 45.390625 315.285156 45.183594 315.75 45.25 316.597656 Z M 45.25 316.597656 "/>
<path style=" stroke:none;fill-rule:nonzero;fill:rgb(0%,0%,0%);fill-opacity:1;" d="M 304.714844 360.578125 C 304.644531 367.074219 302.453125 373.023438 299.304688 375.574219 C 294.308594 379.59375 292.9375 379.75 267.472656 380.210938 C 244.742188 380.675781 243.578125 380.753906 242.621094 382.222656 C 241.800781 383.535156 241.664062 389.566406 241.800781 421.796875 C 241.9375 448.773438 242.210938 460.058594 242.757812 460.675781 C 243.375 461.371094 243.578125 452.484375 243.578125 426.28125 C 243.578125 406.878906 243.851562 390.726562 244.058594 390.414062 C 244.332031 390.183594 254.875 389.71875 267.539062 389.488281 C 292.800781 389.023438 294.925781 388.636719 300.332031 384.230469 C 301.90625 382.917969 303.753906 380.367188 304.714844 378.203125 C 306.152344 375.035156 306.355469 373.488281 306.289062 367.148438 C 306.21875 363.128906 305.808594 358.726562 305.46875 357.488281 C 304.851562 355.476562 304.78125 355.863281 304.714844 360.578125 Z M 304.714844 360.578125 "/>
</g>
</svg>
