<?xml version="1.0" standalone="no"?>
<!DOCTYPE svg PUBLIC "-//W3C//DTD SVG 20010904//EN"
 "http://www.w3.org/TR/2001/REC-SVG-20010904/DTD/svg10.dtd">
<svg version="1.0" xmlns="http://www.w3.org/2000/svg"
 width="460.000000pt" height="460.000000pt" viewBox="0 0 460.000000 460.000000"
 preserveAspectRatio="xMidYMid meet">

<g transform="translate(0.000000,460.000000) scale(0.100000,-0.100000)"
fill="#000000" stroke="none">
<path d="M2698 4018 c-8 -7 -26 -33 -40 -58 -14 -25 -64 -109 -111 -188 -48
-78 -87 -145 -87 -148 0 -3 -9 -19 -20 -34 l-20 -28 -43 20 c-23 11 -55 30
-72 42 -16 13 -59 38 -95 58 -36 19 -105 59 -155 88 -158 93 -160 94 -185 87
-21 -5 -30 -21 -53 -89 -47 -135 -118 -330 -136 -373 -10 -22 -24 -55 -31 -72
-15 -39 -26 -40 -105 -12 -33 12 -129 45 -214 75 -85 30 -160 59 -167 65 -8 6
-25 8 -39 5 -33 -8 -42 -47 -21 -89 21 -42 79 -194 106 -282 13 -38 24 -73 26
-76 2 -3 -7 -4 -20 -2 -42 8 -45 -16 -27 -227 9 -107 20 -200 24 -207 4 -6 26
-18 50 -26 23 -9 70 -25 105 -37 l62 -22 0 -72 c0 -102 -22 -241 -75 -480 -26
-115 -44 -220 -41 -232 8 -29 45 -40 76 -24 29 16 98 -13 105 -44 25 -116 48
-193 69 -235 31 -60 32 -85 7 -141 -14 -32 -17 -50 -10 -73 16 -55 28 -60 170
-69 169 -11 201 -3 230 55 40 79 43 80 171 61 121 -18 272 -15 380 7 31 6 64
9 72 6 8 -3 27 -31 42 -61 15 -31 36 -59 48 -63 12 -5 84 -7 161 -5 117 2 144
6 165 21 36 27 47 74 27 117 -20 41 -21 83 -4 106 32 41 113 30 161 -22 92
-99 103 -109 140 -116 29 -5 51 -2 85 13 34 14 51 17 63 9 24 -15 40 3 87 96
61 120 56 135 -39 111 -153 -38 -162 -42 -157 -69 2 -13 0 -27 -4 -30 -5 -3
-9 1 -9 8 0 9 -3 9 -10 -2 -5 -8 -10 -10 -10 -4 0 16 -85 97 -122 116 -18 9
-54 26 -80 38 -27 12 -48 26 -48 31 0 6 5 7 10 4 6 -3 10 -2 10 4 0 5 -4 11
-8 13 -5 2 -6 23 -4 47 2 24 8 38 12 32 5 -9 11 -7 21 5 12 15 12 17 0 9 -10
-5 -12 -4 -7 4 4 6 11 9 16 6 5 -3 16 2 25 11 13 13 20 14 45 4 16 -6 38 -9
49 -5 41 13 39 39 -29 350 -33 151 -60 343 -60 430 0 72 11 83 141 152 46 24
87 51 90 61 7 20 -8 331 -19 382 -6 28 -12 35 -32 35 -28 0 -53 -42 -91 -155
-12 -36 -30 -81 -40 -101 -25 -51 -75 -61 -83 -18 -11 54 -57 198 -81 254 -10
22 -26 59 -37 83 -18 40 -19 45 -4 61 9 10 16 27 16 38 0 21 -79 252 -106 311
-8 17 -21 51 -28 75 -8 23 -37 107 -65 187 -28 79 -51 155 -51 167 0 16 -8 27
-26 33 -31 12 -27 12 -46 -2z m132 -358 c43 -124 90 -254 104 -290 15 -36 30
-79 35 -96 l9 -32 -127 -42 c-69 -24 -166 -58 -216 -77 -49 -19 -179 -65 -288
-103 -108 -38 -225 -81 -260 -94 -34 -14 -159 -59 -277 -100 -118 -41 -258
-91 -310 -110 -52 -19 -95 -34 -97 -33 -3 3 -34 93 -147 412 -37 105 -77 216
-91 248 -13 31 -19 57 -13 57 11 0 294 -100 423 -149 44 -17 83 -31 86 -31 3
0 10 15 16 33 31 93 202 555 209 566 2 1 18 -8 36 -22 18 -13 65 -42 103 -63
39 -21 110 -62 158 -91 157 -95 249 -145 255 -138 3 3 33 52 67 109 33 57 94
160 135 228 l74 125 19 -41 c10 -22 54 -142 97 -266z m135 -556 c19 -41 37
-83 38 -92 2 -9 8 -27 15 -39 10 -18 30 -112 72 -344 5 -30 10 -89 10 -130 0
-129 41 -406 85 -579 7 -30 16 -73 19 -95 3 -22 8 -49 11 -60 5 -18 1 -20 -54
-22 l-60 -2 -20 54 c-11 30 -23 65 -25 77 -12 54 -61 188 -70 188 -5 0 -5 -19
-1 -42 4 -24 9 -56 12 -73 2 -16 9 -47 14 -68 43 -163 31 -315 -35 -459 -47
-103 -47 -101 -20 -148 30 -53 31 -78 2 -84 -13 -3 -73 -8 -135 -11 -103 -6
-113 -5 -132 14 -29 29 -37 86 -17 127 8 19 20 34 26 34 5 0 9 3 8 8 -4 14 33
73 42 67 6 -3 7 0 4 8 -3 8 -1 18 5 21 9 6 47 80 57 111 2 6 12 35 23 65 26
74 29 91 42 259 9 108 9 170 0 248 -7 57 -9 109 -5 115 5 7 3 8 -6 3 -10 -6
-12 -3 -8 11 10 39 -12 43 -214 44 -528 2 -907 -1 -912 -8 -2 -4 -10 -46 -16
-92 -17 -120 -15 -336 5 -455 21 -127 19 -118 58 -205 12 -25 21 -49 21 -55 1
-5 3 -12 6 -15 3 -3 29 -41 59 -85 56 -83 69 -131 51 -180 -15 -38 -48 -45
-180 -38 -136 7 -144 12 -110 78 25 50 25 85 -1 136 -11 23 -18 47 -15 55 4
10 2 12 -6 8 -8 -5 -9 -2 -5 10 4 10 3 15 -3 11 -5 -3 -12 7 -16 22 -3 15 -11
46 -16 68 -16 61 -13 222 4 285 16 56 41 183 39 197 -2 17 -24 7 -27 -12 -1
-11 -20 -75 -40 -143 -25 -83 -41 -118 -47 -110 -6 9 -7 6 -4 -8 7 -35 -5 -46
-38 -34 -15 6 -41 9 -57 6 -15 -2 -28 0 -28 5 0 5 4 9 9 9 4 0 6 11 3 25 -2
15 0 25 7 25 7 0 9 9 5 24 -3 13 -1 27 5 31 6 3 9 10 7 14 -5 8 29 185 41 211
3 8 7 24 8 35 1 11 9 81 18 155 9 74 19 188 22 254 7 137 10 143 92 161 18 4
165 58 327 120 48 19 92 32 96 30 5 -3 10 0 12 6 2 7 18 12 35 13 17 0 29 5
26 10 -3 4 5 5 17 1 14 -5 20 -3 16 3 -3 6 8 13 26 17 18 4 35 10 38 14 4 5
201 74 220 77 3 0 16 5 30 11 14 6 50 20 80 31 30 11 98 36 150 56 52 21 102
35 110 33 8 -2 11 -2 6 1 -10 6 91 44 121 46 11 0 19 4 16 9 -2 4 0 7 6 7 6 0
26 -34 46 -76z m-138 -882 c15 -90 9 -420 -10 -507 -26 -122 -169 -386 -216
-399 -146 -42 -278 -55 -405 -40 -134 16 -196 32 -224 58 -64 57 -175 275
-197 386 -22 110 -30 349 -16 450 7 47 15 88 17 92 2 3 238 6 524 6 l519 1 8
-47z"/>
<path d="M1782 2613 c-34 -7 -64 -60 -57 -103 3 -19 6 -43 7 -52 1 -9 4 -15 6
-13 3 2 14 -2 26 -10 40 -29 116 -11 136 33 19 44 12 91 -19 123 -29 28 -46
32 -99 22z"/>
<path d="M2669 2591 c-22 -23 -29 -39 -29 -69 0 -75 64 -117 135 -88 18 8 37
11 41 8 4 -4 4 -2 1 4 -4 7 -1 24 7 39 12 23 12 32 0 61 -8 19 -12 39 -9 45 4
5 3 9 -2 8 -4 -1 -21 3 -36 9 -46 19 -76 14 -108 -17z"/>
</g>
</svg>
